<svg width="28" height="29" viewBox="0 0 28 29" fill="none" xmlns="http://www.w3.org/2000/svg">
<path d="M14 25.6871C20.4433 25.6871 25.6667 20.4638 25.6667 14.0204C25.6667 7.5771 20.4433 2.35376 14 2.35376C7.55669 2.35376 2.33334 7.5771 2.33334 14.0204C2.33334 20.4638 7.55669 25.6871 14 25.6871Z" stroke="#3B71FE" stroke-width="2" stroke-linecap="round" stroke-linejoin="round"/>
<path d="M25.375 15.0004C21.2917 13.9154 17.64 14.0438 14.945 15.0004C11.935 16.0738 9.1 18.3371 6.265 22.3738M9.98667 3.22876C15.085 10.2638 17.01 14.2188 19.355 23.9021L9.98667 3.22876ZM22.3183 5.95876C17.9783 11.0338 11.8883 12.5621 2.625 12.7838L22.3183 5.95876Z" stroke="#3B71FE" stroke-width="2" stroke-linecap="round" stroke-linejoin="round"/>
</svg>
