<svg width="28" height="29" viewBox="0 0 28 29" fill="none" xmlns="http://www.w3.org/2000/svg">
<path d="M19.8333 2.35376H8.16668C4.94502 2.35376 2.33334 4.96543 2.33334 8.18709V19.8538C2.33334 23.0754 4.94502 25.6871 8.16668 25.6871H19.8333C23.055 25.6871 25.6667 23.0754 25.6667 19.8538V8.18709C25.6667 4.96543 23.055 2.35376 19.8333 2.35376Z" stroke="#3B71FE" stroke-width="2" stroke-linecap="round" stroke-linejoin="round"/>
<path d="M20.4167 7.60376H20.4283M18.6667 13.2854C18.8107 14.2564 18.6448 15.248 18.1927 16.1193C17.7407 16.9905 17.0254 17.6971 16.1486 18.1384C15.2718 18.5797 14.2782 18.7333 13.3091 18.5773C12.34 18.4214 11.4447 17.9639 10.7507 17.2698C10.0566 16.5757 9.59904 15.6804 9.44309 14.7113C9.28715 13.7422 9.44076 12.7486 9.88206 11.8719C10.3234 10.9951 11.0299 10.2798 11.9012 9.82771C12.7724 9.37563 13.7641 9.20978 14.735 9.35376C15.7254 9.50063 16.6423 9.96213 17.3503 10.6701C18.0583 11.3781 18.5198 12.295 18.6667 13.2854Z" stroke="#3B71FE" stroke-width="2" stroke-linecap="round" stroke-linejoin="round"/>
</svg>
