<svg width="28" height="29" viewBox="0 0 28 29" fill="none" xmlns="http://www.w3.org/2000/svg">
<path d="M26.8333 3.52052C25.7161 4.30858 24.4791 4.91131 23.17 5.30552C22.4674 4.49762 21.5335 3.92499 20.4949 3.6651C19.4562 3.40521 18.3627 3.47058 17.3624 3.85238C16.3621 4.23418 15.5032 4.91399 14.9018 5.79986C14.3004 6.68572 13.9856 7.73491 14 8.80552V9.97219C11.9497 10.0253 9.91814 9.57064 8.08617 8.64854C6.25419 7.72645 4.67869 6.3656 3.49999 4.68719C3.49999 4.68719 -1.16668 15.1872 9.33332 19.8539C6.93061 21.4848 4.06834 22.3026 1.16666 22.1872C11.6667 28.0205 24.5 22.1872 24.5 8.77052C24.4989 8.44555 24.4677 8.12138 24.4067 7.80219C25.5974 6.62793 26.4376 5.14535 26.8333 3.52052V3.52052Z" stroke="#3B71FE" stroke-width="2" stroke-linecap="round" stroke-linejoin="round"/>
</svg>
